# MagicaVoxel @ Ephtracy

# group
o 

# material
mtllib untitled.mtl
usemtl palette

# normals
vn -1 0 0
vn 1 0 0
vn 0 0 1
vn 0 0 -1
vn 0 -1 0
vn 0 1 0

# texcoords
vt 0.310547 0.5
vt 0.841797 0.5
vt 0.880859 0.5
vt 0.919922 0.5
vt 0.958984 0.5
vt 0.962891 0.5

# verts
v -2 0 2
v -2 0 -2
v -2 0.2 2
v -2 0.2 -2
v -2 2 2
v -2 2 -2
v -1.6 0.2 1.3
v -1.6 0.2 -1
v -1.6 1.2 1.3
v -1.6 1.2 -1
v 1.2 0.3 0.0999999
v 1.2 0.3 -1
v 1.2 0.5 0.7
v 1.2 0.5 0.0999999
v 1.2 0.6 0.8
v 1.2 0.6 0.7
v 1.2 0.7 0.8
v 1.2 0.7 -1
v 1.3 0.7 0.9
v 1.3 0.7 -1
v 1.3 0.8 0.9
v 1.3 0.8 -1
v 1.3 1 1
v 1.3 1 -1
v 1.3 1.2 1
v 1.3 1.2 -1
v 1.4 0.8 1
v 1.4 0.8 -1
v 1.4 1 1
v 1.4 1 -1
v 1.7 1.7 1.7
v 1.7 1.7 -1.8
v 1.7 1.9 1.7
v 1.7 1.9 -1.8
v 1.9 0.2 1.9
v 1.9 0.2 -2
v 1.9 1.7 1.9
v 1.9 1.7 -2
v -1.9 0.2 1.9
v -1.9 0.2 -2
v -1.9 1.7 1.9
v -1.9 1.7 -2
v -1.7 1.7 1.7
v -1.7 1.7 -1.8
v -1.7 1.9 1.7
v -1.7 1.9 -1.8
v -1.5 0.8 1
v -1.5 0.8 -1
v -1.5 1 1
v -1.5 1 -1
v -1.4 0.7 0.9
v -1.4 0.7 -1
v -1.4 0.8 0.9
v -1.4 0.8 -1
v -1.4 1 1
v -1.4 1 -1
v -1.4 1.2 1
v -1.4 1.2 -1
v -1.3 0.3 0.0999999
v -1.3 0.3 -1
v -1.3 0.5 0.7
v -1.3 0.5 0.0999999
v -1.3 0.6 0.8
v -1.3 0.6 0.7
v -1.3 0.7 0.8
v -1.3 0.7 -1
v 1.5 0.2 1.3
v 1.5 0.2 -1
v 1.5 1.2 1.3
v 1.5 1.2 -1
v 2 0 2
v 2 0 -2
v 2 0.2 2
v 2 0.2 -2
v 2 2 2
v 2 2 -2
v -2 0 2
v -2 0.2 2
v -2 2 2
v 2 0 2
v 2 0.2 2
v 2 2 2
v -1.6 0.2 1.3
v -1.6 1.2 1.3
v 1.5 0.2 1.3
v 1.5 1.2 1.3
v -1.7 1.7 -1.8
v -1.7 1.9 -1.8
v 1.7 1.7 -1.8
v 1.7 1.9 -1.8
v -1.9 0.2 1.9
v -1.9 1.7 1.9
v 1.9 0.2 1.9
v 1.9 1.7 1.9
v -1.7 1.7 1.7
v -1.7 1.9 1.7
v 1.7 1.7 1.7
v 1.7 1.9 1.7
v -1.5 0.8 1
v -1.5 1 1
v -1.4 1 1
v -1.4 1.2 1
v 1.3 1 1
v 1.3 1.2 1
v 1.4 0.8 1
v 1.4 1 1
v -1.4 0.7 0.9
v -1.4 0.8 0.9
v 1.3 0.7 0.9
v 1.3 0.8 0.9
v -1.3 0.6 0.8
v -1.3 0.7 0.8
v 1.2 0.6 0.8
v 1.2 0.7 0.8
v -1.3 0.5 0.7
v -1.3 0.6 0.7
v 1.2 0.5 0.7
v 1.2 0.6 0.7
v -1.3 0.3 0.0999999
v -1.3 0.5 0.0999999
v 1.2 0.3 0.0999999
v 1.2 0.5 0.0999999
v -1.6 0.2 -1
v -1.6 1.2 -1
v -1.5 0.8 -1
v -1.5 1 -1
v -1.5 1.2 -1
v -1.4 0.7 -1
v -1.4 0.8 -1
v -1.4 1 -1
v -1.4 1.2 -1
v -1.3 0.2 -1
v -1.3 0.3 -1
v -1.3 0.7 -1
v 1.2 0.2 -1
v 1.2 0.3 -1
v 1.2 0.7 -1
v 1.3 0.7 -1
v 1.3 0.8 -1
v 1.3 1 -1
v 1.3 1.2 -1
v 1.4 0.8 -1
v 1.4 1 -1
v 1.4 1.2 -1
v 1.5 0.2 -1
v 1.5 1.2 -1
v -2 0 -2
v -2 0.2 -2
v -2 2 -2
v -1.9 0.2 -2
v -1.9 1.7 -2
v -1.9 1.9 -2
v -1.9 2 -2
v 1.9 0.2 -2
v 1.9 1.7 -2
v 1.9 1.9 -2
v 1.9 2 -2
v 2 0 -2
v 2 0.2 -2
v 2 2 -2
v -2 0 2
v 2 0 2
v -2 0 -2
v 2 0 -2
v -1.5 1 1
v -1.4 1 1
v 1.3 1 1
v 1.4 1 1
v -1.5 1 -1
v -1.4 1 -1
v 1.3 1 -1
v 1.4 1 -1
v -1.9 1.7 1.9
v 1.9 1.7 1.9
v -1.7 1.7 1.7
v 1.7 1.7 1.7
v -1.7 1.7 -1.8
v 1.7 1.7 -1.8
v -1.9 1.7 -2
v 1.9 1.7 -2
v -1.7 1.9 1.7
v 1.7 1.9 1.7
v -1.7 1.9 -1.8
v 1.7 1.9 -1.8
v -1.9 0.2 1.9
v 1.9 0.2 1.9
v -1.6 0.2 1.3
v 1.5 0.2 1.3
v -1.6 0.2 -1
v -1.3 0.2 -1
v 1.2 0.2 -1
v 1.5 0.2 -1
v -1.9 0.2 -2
v 1.9 0.2 -2
v -1.3 0.3 0.0999999
v 1.2 0.3 0.0999999
v -1.3 0.3 -1
v 1.2 0.3 -1
v -1.3 0.5 0.7
v 1.2 0.5 0.7
v -1.3 0.5 0.0999999
v 1.2 0.5 0.0999999
v -1.3 0.6 0.8
v 1.2 0.6 0.8
v -1.3 0.6 0.7
v 1.2 0.6 0.7
v -1.4 0.7 0.9
v 1.3 0.7 0.9
v -1.3 0.7 0.8
v 1.2 0.7 0.8
v -1.4 0.7 -1
v -1.3 0.7 -1
v 1.2 0.7 -1
v 1.3 0.7 -1
v -1.5 0.8 1
v 1.4 0.8 1
v -1.4 0.8 0.9
v 1.3 0.8 0.9
v -1.5 0.8 -1
v -1.4 0.8 -1
v 1.3 0.8 -1
v 1.4 0.8 -1
v -1.6 1.2 1.3
v 1.5 1.2 1.3
v -1.5 1.2 1.1
v 1.4 1.2 1.1
v -1.5 1.2 1
v -1.4 1.2 1
v 1.3 1.2 1
v 1.4 1.2 1
v -1.6 1.2 -1
v -1.5 1.2 -1
v -1.4 1.2 -1
v 1.3 1.2 -1
v 1.4 1.2 -1
v 1.5 1.2 -1
v -2 2 2
v 2 2 2
v -1.9 2 1.9
v 1.9 2 1.9
v -2 2 -2
v -1.9 2 -2
v 1.9 2 -2
v 2 2 -2

# faces
f 3/5/1 2/5/1 1/5/1
f 4/5/1 2/5/1 3/5/1
f 5/1/1 4/1/1 3/1/1
f 6/1/1 4/1/1 5/1/1
f 9/5/1 8/5/1 7/5/1
f 10/5/1 8/5/1 9/5/1
f 14/5/1 12/5/1 11/5/1
f 16/5/1 14/5/1 13/5/1
f 17/5/1 16/5/1 15/5/1
f 18/5/1 12/5/1 14/5/1
f 18/5/1 16/5/1 17/5/1
f 18/5/1 14/5/1 16/5/1
f 21/5/1 20/5/1 19/5/1
f 22/5/1 20/5/1 21/5/1
f 25/4/1 24/4/1 23/4/1
f 26/4/1 24/4/1 25/4/1
f 29/5/1 28/5/1 27/5/1
f 30/5/1 28/5/1 29/5/1
f 33/6/1 32/6/1 31/6/1
f 34/6/1 32/6/1 33/6/1
f 37/1/1 36/1/1 35/1/1
f 38/1/1 36/1/1 37/1/1
f 39/1/2 40/1/2 41/1/2
f 41/1/2 40/1/2 42/1/2
f 43/6/2 44/6/2 45/6/2
f 45/6/2 44/6/2 46/6/2
f 47/5/2 48/5/2 49/5/2
f 49/5/2 48/5/2 50/5/2
f 51/5/2 52/5/2 53/5/2
f 53/5/2 52/5/2 54/5/2
f 55/4/2 56/4/2 57/4/2
f 57/4/2 56/4/2 58/4/2
f 59/5/2 60/5/2 62/5/2
f 61/5/2 62/5/2 64/5/2
f 63/5/2 64/5/2 65/5/2
f 62/5/2 60/5/2 66/5/2
f 65/5/2 64/5/2 66/5/2
f 64/5/2 62/5/2 66/5/2
f 67/5/2 68/5/2 69/5/2
f 69/5/2 68/5/2 70/5/2
f 71/5/2 72/5/2 73/5/2
f 73/5/2 72/5/2 74/5/2
f 73/1/2 74/1/2 75/1/2
f 75/1/2 74/1/2 76/1/2
f 80/5/3 78/5/3 77/5/3
f 81/1/3 79/1/3 78/1/3
f 81/5/3 78/5/3 80/5/3
f 82/1/3 79/1/3 81/1/3
f 85/5/3 84/5/3 83/5/3
f 86/5/3 84/5/3 85/5/3
f 89/6/3 88/6/3 87/6/3
f 90/6/3 88/6/3 89/6/3
f 91/1/4 92/1/4 93/1/4
f 93/1/4 92/1/4 94/1/4
f 95/6/4 96/6/4 97/6/4
f 97/6/4 96/6/4 98/6/4
f 99/5/4 100/5/4 101/5/4
f 99/5/4 101/5/4 103/5/4
f 101/2/4 102/2/4 103/2/4
f 103/2/4 102/2/4 104/2/4
f 99/5/4 103/5/4 105/5/4
f 105/5/4 103/5/4 106/5/4
f 107/5/4 108/5/4 109/5/4
f 109/5/4 108/5/4 110/5/4
f 111/5/4 112/5/4 113/5/4
f 113/5/4 112/5/4 114/5/4
f 115/5/4 116/5/4 117/5/4
f 117/5/4 116/5/4 118/5/4
f 119/5/4 120/5/4 121/5/4
f 121/5/4 120/5/4 122/5/4
f 123/5/4 124/5/4 125/5/4
f 125/5/4 124/5/4 126/5/4
f 126/5/4 124/5/4 127/5/4
f 123/5/4 125/5/4 128/5/4
f 128/5/4 125/5/4 129/5/4
f 126/4/4 127/4/4 130/4/4
f 130/4/4 127/4/4 131/4/4
f 123/5/4 128/5/4 132/5/4
f 132/5/4 128/5/4 133/5/4
f 133/5/4 128/5/4 134/5/4
f 132/3/4 133/3/4 135/3/4
f 135/3/4 133/3/4 136/3/4
f 135/5/4 136/5/4 138/5/4
f 136/5/4 137/5/4 138/5/4
f 138/5/4 139/5/4 142/5/4
f 140/4/4 141/4/4 143/4/4
f 143/4/4 141/4/4 144/4/4
f 135/5/4 138/5/4 145/5/4
f 138/5/4 142/5/4 145/5/4
f 143/5/4 144/5/4 145/5/4
f 142/5/4 143/5/4 145/5/4
f 145/5/4 144/5/4 146/5/4
f 147/5/4 148/5/4 150/5/4
f 148/1/4 149/1/4 150/1/4
f 150/1/4 149/1/4 151/1/4
f 151/1/4 149/1/4 152/1/4
f 152/1/4 149/1/4 153/1/4
f 147/5/4 150/5/4 154/5/4
f 151/6/4 152/6/4 155/6/4
f 152/5/4 153/5/4 156/5/4
f 155/6/4 152/6/4 156/6/4
f 156/5/4 153/5/4 157/5/4
f 147/5/4 154/5/4 158/5/4
f 154/1/4 155/1/4 159/1/4
f 158/5/4 154/5/4 159/5/4
f 155/1/4 156/1/4 159/1/4
f 156/1/4 157/1/4 159/1/4
f 159/1/4 157/1/4 160/1/4
f 163/5/5 162/5/5 161/5/5
f 164/5/5 162/5/5 163/5/5
f 169/4/5 166/4/5 165/4/5
f 170/4/5 166/4/5 169/4/5
f 171/4/5 168/4/5 167/4/5
f 172/4/5 168/4/5 171/4/5
f 175/6/5 174/6/5 173/6/5
f 176/6/5 174/6/5 175/6/5
f 177/6/5 175/6/5 173/6/5
f 178/6/5 174/6/5 176/6/5
f 179/6/5 177/6/5 173/6/5
f 179/6/5 178/6/5 177/6/5
f 180/6/5 174/6/5 178/6/5
f 180/6/5 178/6/5 179/6/5
f 183/5/5 182/5/5 181/5/5
f 184/5/5 182/5/5 183/5/5
f 185/5/6 186/5/6 187/5/6
f 187/5/6 186/5/6 188/5/6
f 185/5/6 187/5/6 189/5/6
f 188/5/6 186/5/6 192/5/6
f 190/5/6 191/5/6 193/5/6
f 191/5/6 192/5/6 193/5/6
f 185/5/6 189/5/6 193/5/6
f 189/5/6 190/5/6 193/5/6
f 192/5/6 186/5/6 194/5/6
f 193/5/6 192/5/6 194/5/6
f 195/3/6 196/3/6 197/3/6
f 197/3/6 196/3/6 198/3/6
f 199/5/6 200/5/6 201/5/6
f 201/5/6 200/5/6 202/5/6
f 203/5/6 204/5/6 205/5/6
f 205/5/6 204/5/6 206/5/6
f 207/5/6 208/5/6 209/5/6
f 209/5/6 208/5/6 210/5/6
f 207/5/6 209/5/6 211/5/6
f 211/5/6 209/5/6 212/5/6
f 210/5/6 208/5/6 213/5/6
f 213/5/6 208/5/6 214/5/6
f 215/5/6 216/5/6 217/5/6
f 217/5/6 216/5/6 218/5/6
f 215/5/6 217/5/6 219/5/6
f 219/5/6 217/5/6 220/5/6
f 218/5/6 216/5/6 221/5/6
f 221/5/6 216/5/6 222/5/6
f 223/5/6 224/5/6 225/5/6
f 225/5/6 224/5/6 226/5/6
f 223/5/6 225/5/6 227/5/6
f 225/2/6 226/2/6 227/2/6
f 227/2/6 226/2/6 228/2/6
f 228/2/6 226/2/6 229/2/6
f 226/5/6 224/5/6 230/5/6
f 229/2/6 226/2/6 230/2/6
f 223/5/6 227/5/6 231/5/6
f 227/4/6 228/4/6 232/4/6
f 231/5/6 227/5/6 232/5/6
f 232/4/6 228/4/6 233/4/6
f 229/4/6 230/4/6 234/4/6
f 230/5/6 224/5/6 235/5/6
f 234/4/6 230/4/6 235/4/6
f 235/5/6 224/5/6 236/5/6
f 237/1/6 238/1/6 239/1/6
f 239/1/6 238/1/6 240/1/6
f 237/1/6 239/1/6 241/1/6
f 239/5/6 240/5/6 242/5/6
f 241/1/6 239/1/6 242/1/6
f 240/1/6 238/1/6 243/1/6
f 242/5/6 240/5/6 243/5/6
f 243/1/6 238/1/6 244/1/6
